<!DOCTYPE svg PUBLIC "-//W3C//DTD SVG 1.1//EN" "http://www.w3.org/Graphics/SVG/1.1/DTD/svg11.dtd">

<!-- Uploaded to: SVG Repo, www.svgrepo.com, Transformed by: SVG Repo Mixer Tools -->
<svg fill="#ffffff" width="800px" height="800px" viewBox="0 0 64 64" xmlns="http://www.w3.org/2000/svg" stroke="#000000">

<g id="SVGRepo_bgCarrier" stroke-width="0"/>

<g id="SVGRepo_tracerCarrier" stroke-linecap="round" stroke-linejoin="round"/>

<g id="SVGRepo_iconCarrier"> <g id="party"> <circle cx="52" cy="56" r="1"/> <circle cx="21" cy="31" r="2"/> <circle cx="35" cy="31" r="2"/> <path d="M56,21a3,3,0,1,0-3-3A3.0033,3.0033,0,0,0,56,21Zm0-4a1,1,0,1,1-1,1A1.0009,1.0009,0,0,1,56,17Z"/> <path d="M6,10A1,1,0,0,0,7,9V8A1,1,0,0,0,5,8V9A1,1,0,0,0,6,10Z"/> <path d="M6,12a1,1,0,0,0-1,1v1a1,1,0,0,0,2,0V13A1,1,0,0,0,6,12Z"/> <path d="M5,11a1,1,0,0,0-1-1H3a1,1,0,0,0,0,2H4A1,1,0,0,0,5,11Z"/> <path d="M8,12H9a1,1,0,0,0,0-2H8a1,1,0,0,0,0,2Z"/> <path d="M56.5,32H55a1,1,0,0,0-1,1v4a1,1,0,0,0,1,1h1.5a1.5,1.5,0,0,1,0,3H51.662a23.9612,23.9612,0,0,0-2.749-15.7751c.531-3.4526,1.4285-9.4314,2.9942-19.8811a.9994.9994,0,0,0-1.46-1.03C41.5692,9.0552,36.303,11.87,33.1655,13.5586A24.002,24.002,0,1,0,49.818,47H56.5a7.5,7.5,0,0,0,0-15ZM33.7189,15.538a46.1218,46.1218,0,0,0,6.245,5.1817A46.18,46.18,0,0,0,46.94,24.8662c-.2655,1.7394-.4753,3.0995-.5919,3.83-1.1338-.209-4.2471-1.5733-8.69-4.709s-6.7725-5.6094-7.3491-6.6074C30.9583,17.0249,32.1693,16.3713,33.7189,15.538Zm14.1639,3.1134a52.13,52.13,0,0,1-4.46-2.835,51.9914,51.9914,0,0,1-4.1647-3.2507c3.3377-1.7884,7.0749-3.7871,10.3761-5.5511C49.079,10.7163,48.4486,14.9072,47.8828,18.6514ZM56.5,45H29a1,1,0,0,0,0,2H47.5872A22.0055,22.0055,0,1,1,30.284,15.1207c-1.7181.9435-1.7729,1.016-1.8538,1.1313-.6724.9531-.0982,2.2363,1.92,4.291a46.8009,46.8009,0,0,0,6.1543,5.0791,46.7888,46.7888,0,0,0,6.8486,4.0957A8.6784,8.6784,0,0,0,46.67,30.7256a1.5471,1.5471,0,0,0,1.3692-.6358c.0705-.1.1173-.17.3278-1.4162A21.9652,21.9652,0,0,1,49.63,41H22.4141L20.707,39.293a1,1,0,0,0-1.414,1.414l2,2A1,1,0,0,0,22,43H56.5a3.5,3.5,0,0,0,0-7H56V34h.5a5.5,5.5,0,0,1,0,11Z"/> </g> </g>

</svg>